<svg width="284" height="171" viewBox="0 0 284 171" fill="none" xmlns="http://www.w3.org/2000/svg">
<mask id="mask0_99_1295" style="mask-type:alpha" maskUnits="userSpaceOnUse" x="0" y="0" width="284" height="171">
<path d="M0.296875 24C0.296875 12.6863 0.296875 7.02944 3.81159 3.51472C7.32631 0 12.9832 0 24.2969 0H259.875C271.189 0 276.846 0 280.36 3.51472C283.875 7.02944 283.875 12.6863 283.875 24V147C283.875 158.314 283.875 163.971 280.36 167.485C276.846 171 271.189 171 259.875 171H24.2969C12.9832 171 7.32631 171 3.81159 167.485C0.296875 163.971 0.296875 158.314 0.296875 147V24Z" fill="black"/>
</mask>
<g mask="url(#mask0_99_1295)">
<path opacity="0.0344828" d="M56.2361 74.7175C58.3821 71.722 62.8706 70.8376 69.6982 72.436C76.4408 74.0144 85.1041 77.9371 95.114 83.9013C115.12 95.8219 140.318 115.784 165.946 140.971C191.574 166.157 212.734 191.755 226.231 212.761C232.984 223.271 237.787 232.582 240.285 240.085C242.814 247.683 242.85 253.014 240.704 256.009C238.558 259.005 234.07 259.889 227.242 258.291C220.5 256.712 211.836 252.79 201.826 246.825C181.82 234.905 156.622 214.943 130.994 189.756C105.367 164.57 84.2064 138.972 70.7092 117.966C63.9561 107.456 59.1534 98.1444 56.6554 90.6414C54.1258 83.0437 54.0901 77.713 56.2361 74.7175Z" stroke="black" stroke-width="2"/>
<path opacity="0.0689655" d="M63.3244 64.5027C64.493 63.134 66.1939 62.3333 68.4782 62.1682C70.7701 62.0026 73.5903 62.4839 76.8919 63.6149C83.4943 65.8766 91.8353 70.6703 101.365 77.6348C120.411 91.5543 144.029 114.015 167.687 141.723C191.345 169.432 210.521 197.095 222.406 219.402C228.352 230.563 232.445 240.333 234.376 248.065C235.342 251.932 235.753 255.235 235.611 257.92C235.47 260.595 234.787 262.587 233.618 263.956C232.449 265.325 230.748 266.126 228.464 266.291C226.172 266.456 223.352 265.975 220.05 264.844C213.448 262.582 205.107 257.788 195.578 250.824C176.532 236.905 152.913 214.444 129.256 186.735C105.598 159.027 86.4211 131.364 74.5366 109.057C68.5903 97.8956 64.4974 88.1263 62.5664 80.3934C61.6007 76.5264 61.1898 73.2234 61.3312 70.539C61.4721 67.8636 62.1558 65.8714 63.3244 64.5027Z" stroke="black" stroke-width="2"/>
<path opacity="0.103448" d="M71.0604 55.0446C72.317 53.8097 74.063 53.1851 76.3514 53.2539C78.6468 53.3229 81.4216 54.0904 84.6282 55.5549C91.04 58.4832 98.9949 64.1121 107.971 72.0239C125.911 87.837 147.771 112.625 169.278 142.645C190.785 172.665 207.832 202.183 218.012 225.622C223.106 237.349 226.458 247.502 227.807 255.406C228.481 259.359 228.645 262.693 228.304 265.353C227.965 268.004 227.136 269.91 225.88 271.145C224.623 272.379 222.877 273.004 220.589 272.935C218.293 272.866 215.519 272.099 212.312 270.634C205.9 267.706 197.945 262.077 188.969 254.165C171.029 238.352 149.17 213.564 127.663 183.544C106.156 153.524 89.1085 124.006 78.9277 100.567C73.8339 88.8398 70.4824 78.6869 69.1335 70.7828C68.4589 66.8298 68.2954 63.4961 68.636 60.8364C68.9756 58.185 69.8039 56.2795 71.0604 55.0446Z" stroke="black" stroke-width="2"/>
<path opacity="0.137931" d="M79.3879 46.4078C80.7212 45.3144 82.4992 44.869 84.7745 45.1712C87.0561 45.4743 89.7643 46.5223 92.8514 48.3096C99.0234 51.8828 106.531 58.3043 114.886 67.1035C131.583 84.6901 151.516 111.618 170.709 143.721C189.901 175.824 204.688 206.972 213.087 231.364C217.289 243.568 219.873 254.028 220.629 262.043C221.007 266.052 220.922 269.391 220.385 272.006C219.849 274.613 218.884 276.418 217.55 277.511C216.217 278.605 214.439 279.05 212.164 278.748C209.882 278.445 207.174 277.397 204.087 275.61C197.915 272.036 190.407 265.615 182.053 256.816C165.355 239.229 145.422 212.301 126.23 180.198C107.037 148.095 92.2503 116.947 83.8513 92.5549C79.649 80.3506 77.0648 69.8912 76.3089 61.8762C75.9309 57.8672 76.0162 54.5282 76.5534 51.9134C77.0892 49.3058 78.0546 47.5012 79.3879 46.4078Z" stroke="black" stroke-width="2"/>
<path opacity="0.172414" d="M88.2462 38.6507C89.645 37.7049 91.4419 37.4404 93.687 37.9739C95.9375 38.5088 98.5584 39.8297 101.502 41.9263C107.387 46.1176 114.39 53.2831 122.059 62.9027C137.386 82.1293 155.241 110.992 171.972 144.933C188.703 178.875 201.117 211.416 207.67 236.576C210.949 249.165 212.745 259.851 212.902 267.916C212.98 271.95 212.647 275.269 211.917 277.819C211.189 280.363 210.095 282.053 208.696 282.999C207.297 283.945 205.5 284.21 203.255 283.676C201.005 283.141 198.384 281.82 195.44 279.724C189.555 275.532 182.552 268.367 174.883 258.747C159.556 239.521 141.701 210.658 124.97 176.717C108.239 142.775 95.8247 110.234 89.2721 85.0737C85.9935 72.4854 84.1969 61.7992 84.0402 53.7344C83.9619 49.7001 84.2956 46.3812 85.0254 43.831C85.7535 41.2869 86.8475 39.5966 88.2462 38.6507Z" stroke="black" stroke-width="2"/>
<path opacity="0.206897" d="M97.5603 31.8234C99.0134 31.0298 100.816 30.9468 103.014 31.7079C105.217 32.4705 107.73 34.0544 110.508 36.4446C116.061 41.2223 122.505 49.0775 129.43 59.4443C143.27 80.1645 158.909 110.742 173.052 146.264C187.194 181.786 197.14 215.473 201.796 241.208C204.126 254.085 205.121 264.916 204.677 272.969C204.454 276.998 203.875 280.271 202.958 282.738C202.043 285.199 200.83 286.763 199.376 287.557C197.923 288.35 196.12 288.433 193.922 287.672C191.72 286.91 189.206 285.326 186.429 282.936C180.876 278.158 174.431 270.303 167.507 259.936C153.667 239.216 138.027 208.638 123.885 173.117C109.742 137.595 99.7964 103.908 95.1404 78.1717C92.8109 65.2953 91.8158 54.4638 92.2601 46.4109C92.4823 42.3822 93.062 39.1088 93.9789 36.6427C94.894 34.1813 96.1071 32.617 97.5603 31.8234Z" stroke="black" stroke-width="2"/>
<path opacity="0.241379" d="M107.269 25.9705C108.765 25.3325 110.562 25.4307 112.696 26.4137C114.833 27.3983 117.22 29.2334 119.811 31.899C124.988 37.227 130.825 45.7119 136.952 56.7471C149.199 78.8031 162.504 110.862 173.95 147.694C185.396 184.526 192.797 219.102 195.521 245.217C196.884 258.284 197.069 269.178 196.027 277.157C195.505 281.149 194.684 284.352 193.587 286.715C192.492 289.075 191.169 290.503 189.673 291.141C188.176 291.779 186.379 291.681 184.245 290.698C182.108 289.713 179.721 287.878 177.131 285.212C171.953 279.884 166.116 271.4 159.989 260.364C147.743 238.308 134.437 206.249 122.992 169.417C111.546 132.586 104.144 98.0096 101.421 71.894C100.058 58.8277 99.8725 47.9337 100.915 39.9544C101.436 35.9622 102.257 32.7594 103.354 30.396C104.45 28.0363 105.772 26.6086 107.269 25.9705Z" stroke="black" stroke-width="2"/>
<path opacity="0.275862" d="M117.29 21.128C118.82 20.6479 120.598 20.9258 122.652 22.1236C124.708 23.3227 126.95 25.395 129.333 28.3158C134.095 34.1534 139.279 43.2033 144.562 54.8228C155.121 78.0466 165.991 111.344 174.653 149.205C183.314 187.066 188.115 222.267 188.885 248.563C189.27 261.72 188.644 272.593 187.012 280.438C186.195 284.362 185.138 287.47 183.869 289.713C182.602 291.953 181.181 293.234 179.651 293.715C178.121 294.195 176.344 293.917 174.29 292.719C172.234 291.52 169.992 289.448 167.609 286.527C162.846 280.689 157.662 271.639 152.379 260.02C141.82 236.796 130.95 203.499 122.289 165.638C113.627 127.777 108.826 92.5755 108.056 66.2794C107.671 53.1228 108.297 42.2496 109.93 34.4051C110.746 30.4802 111.803 27.3726 113.072 25.1299C114.339 22.8899 115.76 21.6081 117.29 21.128Z" stroke="black" stroke-width="2"/>
<path opacity="0.310345" d="M127.552 17.3247C129.105 17.0039 130.852 17.4595 132.809 18.8629C134.769 20.2675 136.848 22.5612 139.005 25.7148C143.316 32.0175 147.807 41.5633 152.206 53.6784C160.997 77.893 169.348 112.174 175.159 150.776C180.971 189.378 183.134 224.937 181.944 251.212C181.349 264.359 179.916 275.128 177.706 282.777C176.6 286.605 175.315 289.593 173.884 291.698C172.454 293.801 170.946 294.929 169.393 295.25C167.84 295.571 166.092 295.115 164.135 293.712C162.175 292.307 160.096 290.013 157.939 286.86C153.628 280.557 149.137 271.011 144.738 258.896C135.947 234.682 127.596 200.401 121.785 161.799C115.973 123.197 113.81 87.638 115 61.3621C115.595 48.2156 117.028 37.4464 119.239 29.7971C120.344 25.9696 121.629 22.9812 123.06 20.8764C124.49 18.7734 125.998 17.6454 127.552 17.3247Z" stroke="black" stroke-width="2"/>
<path opacity="0.344828" d="M137.97 14.58C139.536 14.4195 141.241 15.0498 143.087 16.648C144.935 18.2474 146.836 20.745 148.75 24.1072C152.576 30.8266 156.34 40.7952 159.82 53.3136C166.777 78.3343 172.545 113.338 175.462 152.387C178.379 191.435 177.888 227.08 174.747 253.136C173.175 266.172 170.946 276.754 168.175 284.15C166.788 287.85 165.286 290.697 163.704 292.647C162.123 294.597 160.537 295.564 158.971 295.725C157.404 295.885 155.699 295.255 153.853 293.657C152.005 292.057 150.104 289.56 148.19 286.198C144.364 279.478 140.6 269.51 137.12 256.991C130.163 231.971 124.395 196.967 121.478 157.918C118.562 118.87 119.052 83.2245 122.193 57.1693C123.765 44.1332 125.994 33.5505 128.765 26.1551C130.152 22.4546 131.654 19.6083 133.236 17.6575C134.817 15.708 136.403 14.7406 137.97 14.58Z" stroke="black" stroke-width="2"/>
<path opacity="0.37931" d="M148.468 12.9073C150.04 12.9073 151.691 13.7085 153.411 15.4893C155.132 17.2712 156.841 19.9535 158.498 23.4985C161.809 30.5831 164.817 40.8983 167.352 53.7245C172.42 79.3602 175.562 114.82 175.562 154.018C175.562 193.216 172.42 228.675 167.352 254.311C164.817 267.137 161.809 277.452 158.498 284.537C156.841 288.082 155.132 290.764 153.411 292.546C151.691 294.327 150.04 295.128 148.468 295.128C146.897 295.128 145.246 294.327 143.526 292.546C141.804 290.764 140.096 288.082 138.439 284.537C135.128 277.452 132.12 267.137 129.584 254.311C124.517 228.675 121.375 193.216 121.375 154.018C121.375 114.82 124.517 79.3602 129.584 53.7245C132.12 40.8983 135.128 30.5831 138.439 23.4985C140.096 19.9535 141.804 17.2712 143.526 15.4893C145.246 13.7085 146.897 12.9073 148.468 12.9073Z" stroke="black" stroke-width="2"/>
<path opacity="0.413793" d="M158.972 12.3099C160.539 12.4705 162.124 13.4379 163.705 15.3874C165.288 17.3382 166.79 20.1845 168.177 23.885C170.948 31.2804 173.177 41.8631 174.748 54.8991C177.889 80.9544 178.38 116.6 175.463 155.648C172.546 194.697 166.778 229.701 159.822 254.721C156.342 267.24 152.578 277.208 148.752 283.928C146.838 287.29 144.936 289.787 143.089 291.387C141.243 292.985 139.538 293.615 137.971 293.455C136.404 293.294 134.819 292.327 133.238 290.377C131.655 288.426 130.153 285.58 128.766 281.88C125.995 274.484 123.766 263.902 122.195 250.866C119.054 224.81 118.563 189.165 121.48 150.117C124.397 111.068 130.165 76.0642 137.121 51.0435C140.601 38.5251 144.365 28.5565 148.191 21.8371C150.105 18.4748 152.007 15.9773 153.854 14.3779C155.7 12.7797 157.405 12.1494 158.972 12.3099Z" stroke="black" stroke-width="2"/>
<path opacity="0.448276" d="M169.391 12.7853C170.944 13.106 172.453 14.234 173.882 16.337C175.313 18.4417 176.598 21.4302 177.704 25.2576C179.914 32.907 181.347 43.6762 181.942 56.8226C183.132 83.0986 180.969 118.657 175.157 157.259C169.346 195.861 160.995 230.142 152.204 254.357C147.805 266.472 143.314 276.018 139.004 282.32C136.847 285.474 134.767 287.768 132.808 289.172C130.85 290.576 129.103 291.031 127.55 290.71C125.997 290.39 124.488 289.262 123.058 287.159C121.627 285.054 120.343 282.066 119.237 278.238C117.027 270.589 115.594 259.819 114.998 246.673C113.808 220.397 115.972 184.838 121.783 146.236C127.595 107.635 135.945 73.3536 144.737 49.1389C149.135 37.0238 153.626 27.478 157.937 21.1754C160.094 18.0218 162.174 15.7281 164.133 14.3235C166.091 12.9201 167.838 12.4645 169.391 12.7853Z" stroke="black" stroke-width="2"/>
<path opacity="0.482759" d="M179.65 14.3204C181.18 14.8005 182.601 16.0824 183.868 18.3224C185.137 20.565 186.194 23.6726 187.011 27.5975C188.643 35.442 189.269 46.3152 188.884 59.4718C188.114 85.7679 183.313 120.969 174.651 158.83C165.99 196.691 155.12 229.988 144.561 253.212C139.278 264.832 134.094 273.882 129.331 279.719C126.948 282.64 124.706 284.712 122.65 285.911C120.596 287.109 118.819 287.387 117.289 286.907C115.759 286.427 114.338 285.145 113.071 282.905C111.802 280.662 110.745 277.555 109.928 273.63C108.296 265.785 107.67 254.912 108.055 241.756C108.825 215.46 113.626 180.258 122.287 142.397C130.949 104.536 141.819 71.239 152.378 48.0152C157.661 36.3957 162.845 27.3458 167.607 21.5082C169.99 18.5874 172.232 16.5152 174.288 15.316C176.342 14.1183 178.12 13.8403 179.65 14.3204Z" stroke="black" stroke-width="2"/>
<path opacity="0.517241" d="M189.674 16.8936C191.171 17.5316 192.493 18.9593 193.588 21.3191C194.685 23.6825 195.507 26.8853 196.028 30.8774C197.07 38.8567 196.885 49.7508 195.522 62.8171C192.799 88.9327 185.397 123.509 173.951 160.34C162.505 197.172 149.2 229.231 136.953 251.287C130.826 262.323 124.99 270.808 119.812 276.135C117.222 278.801 114.835 280.636 112.697 281.621C110.563 282.604 108.767 282.702 107.27 282.064C105.773 281.426 104.451 279.998 103.356 277.638C102.259 275.275 101.437 272.072 100.916 268.08C99.8738 260.101 100.059 249.207 101.422 236.14C104.145 210.025 111.547 175.449 122.993 138.617C134.439 101.785 147.744 69.7262 159.99 47.6701C166.118 36.6349 171.954 28.15 177.132 22.8221C179.722 20.1565 182.109 18.3214 184.247 17.3368C186.381 16.3537 188.177 16.2556 189.674 16.8936Z" stroke="black" stroke-width="2"/>
<path opacity="0.551724" d="M199.374 20.4777C200.827 21.2713 202.04 22.8356 202.955 25.297C203.872 27.7631 204.452 31.0365 204.674 35.0652C205.118 43.1181 204.123 53.9496 201.794 66.826C197.138 92.5619 187.192 126.249 173.049 161.771C158.907 197.293 143.267 227.87 129.427 248.59C122.503 258.957 116.058 266.812 110.505 271.59C107.728 273.98 105.214 275.564 103.012 276.327C100.814 277.088 99.0108 277.005 97.5576 276.211C96.1045 275.417 94.8913 273.853 93.9763 271.392C93.0594 268.926 92.4797 265.652 92.2574 261.624C91.8132 253.571 92.8082 242.739 95.1377 229.863C99.7937 204.127 109.74 170.44 123.882 134.918C138.025 99.3961 153.664 68.8188 167.504 48.0986C174.429 37.7317 180.873 29.8766 186.426 25.0989C189.204 22.7087 191.717 21.1248 193.92 20.3622C196.118 19.6011 197.921 19.684 199.374 20.4777Z" stroke="black" stroke-width="2"/>
<path opacity="0.586207" d="M208.694 25.0357C210.093 25.9816 211.187 27.6719 211.915 30.216C212.645 32.7662 212.978 36.0851 212.9 40.1194C212.743 48.1842 210.947 58.8704 207.668 71.4588C201.116 96.6188 188.702 129.16 171.97 163.102C155.239 197.043 137.385 225.906 122.057 245.132C114.388 254.752 107.385 261.917 101.5 266.109C98.5565 268.205 95.9356 269.526 93.6851 270.061C91.4399 270.595 89.6431 270.33 88.2443 269.384C86.8455 268.438 85.7516 266.748 85.0235 264.204C84.2937 261.654 83.96 258.335 84.0383 254.301C84.1949 246.236 85.9916 235.55 89.2701 222.961C95.8228 197.801 108.237 165.26 124.968 131.318C141.699 97.3767 159.554 68.5143 174.881 49.2878C182.55 39.6681 189.553 32.5026 195.438 28.3113C198.382 26.2147 201.003 24.8938 203.253 24.3589C205.498 23.8254 207.295 24.0899 208.694 25.0357Z" stroke="black" stroke-width="2"/>
<path opacity="0.62069" d="M217.552 30.5234C218.885 31.6168 219.85 33.4213 220.386 36.0289C220.923 38.6437 221.009 41.9828 220.631 45.9917C219.875 54.0068 217.29 64.4662 213.088 76.6705C204.689 101.063 189.902 132.211 170.71 164.314C151.517 196.417 131.585 223.345 114.887 240.931C106.532 249.73 99.0246 256.152 92.8526 259.725C89.7655 261.512 87.0573 262.56 84.7757 262.863C82.5003 263.166 80.7224 262.72 79.3891 261.627C78.0558 260.533 77.0904 258.729 76.5546 256.121C76.0174 253.507 75.9321 250.167 76.3101 246.159C77.066 238.143 79.6502 227.684 83.8525 215.48C92.2515 191.087 107.038 159.939 126.231 127.836C145.423 95.7335 165.356 68.8056 182.054 51.219C190.408 42.4199 197.916 35.9984 204.088 32.4252C207.175 30.6379 209.883 29.5898 212.165 29.2868C214.44 28.9846 216.218 29.43 217.552 30.5234Z" stroke="black" stroke-width="2"/>
<path opacity="0.655172" d="M225.879 36.8906C227.136 38.1255 227.964 40.031 228.304 42.6824C228.644 45.342 228.481 48.6758 227.806 52.6288C226.458 60.5329 223.106 70.6858 218.012 82.4132C207.831 105.852 190.784 135.37 169.277 165.39C147.77 195.41 125.911 220.198 107.971 236.011C98.9946 243.923 91.0397 249.552 84.6279 252.48C81.4213 253.945 78.6465 254.712 76.3511 254.781C74.0627 254.85 72.3167 254.225 71.0601 252.991C69.8036 251.756 68.9753 249.85 68.6357 247.199C68.2951 244.539 68.4586 241.205 69.1332 237.252C70.4821 229.348 73.8336 219.195 78.9274 207.468C89.1082 184.029 106.155 154.511 127.662 124.491C149.169 94.4713 171.028 69.683 188.969 53.8699C197.945 45.9581 205.9 40.3292 212.312 37.4009C215.518 35.9363 218.293 35.1689 220.589 35.0999C222.877 35.0311 224.623 35.6557 225.879 36.8906Z" stroke="black" stroke-width="2"/>
<path opacity="0.689655" d="M233.617 44.0794C234.785 45.4481 235.469 47.4403 235.61 50.1157C235.751 52.8001 235.34 56.1032 234.375 59.9702C232.443 67.703 228.351 77.4723 222.404 88.6335C210.52 110.941 191.343 138.603 167.685 166.312C144.028 194.021 120.409 216.481 101.363 230.401C91.8338 237.365 83.4928 242.159 76.8904 244.421C73.5888 245.552 70.7686 246.033 68.4767 245.867C66.1924 245.702 64.4915 244.902 63.3229 243.533C62.1543 242.164 61.4706 240.172 61.3297 237.497C61.1883 234.812 61.5992 231.509 62.5649 227.642C64.4959 219.909 68.5888 210.14 74.5351 198.979C86.4196 176.671 105.596 149.009 129.254 121.3C152.912 93.5915 176.53 71.131 195.576 57.2115C205.106 50.2471 213.447 45.4533 220.049 43.1916C223.351 42.0606 226.171 41.5793 228.463 41.7449C230.747 41.91 232.448 42.7107 233.617 44.0794Z" stroke="black" stroke-width="2"/>
<path opacity="0.724138" d="M240.704 52.0258C242.85 55.0213 242.814 60.352 240.285 67.9497C237.787 75.4527 232.984 84.7642 226.231 95.2743C212.734 116.28 191.574 141.878 165.946 167.065C140.318 192.251 115.12 212.213 95.114 224.134C85.1041 230.098 76.4408 234.021 69.6982 235.599C62.8706 237.197 58.3821 236.313 56.2361 233.318C54.0901 230.322 54.1258 224.991 56.6554 217.394C59.1534 209.891 63.9561 200.579 70.7092 190.069C84.2064 169.063 105.367 143.466 130.994 118.279C156.622 93.0921 181.82 73.1302 201.826 61.2096C211.836 55.2454 220.5 51.3227 227.242 49.7443C234.07 48.1459 238.558 49.0303 240.704 52.0258Z" stroke="black" stroke-width="2"/>
<path opacity="0.758621" d="M247.087 60.6597C249.013 63.8806 248.572 69.1969 245.491 76.4964C242.445 83.7128 236.97 92.4959 229.462 102.275C214.455 121.821 191.473 145.158 164.07 167.632C136.667 190.105 110.083 207.417 89.2686 217.248C78.8545 222.167 69.9351 225.19 63.1037 226.073C56.1936 226.967 51.7773 225.635 49.8517 222.414C47.9262 219.193 48.3674 213.877 51.4481 206.577C54.4936 199.361 59.969 190.578 67.4774 180.798C82.484 161.253 105.466 137.915 132.869 115.442C160.272 92.9685 186.856 75.6565 207.67 65.8251C218.085 60.9061 227.004 57.8839 233.835 57.0001C240.745 56.1062 245.162 57.4388 247.087 60.6597Z" stroke="black" stroke-width="2"/>
<path opacity="0.793103" d="M252.719 69.9069C254.406 73.3292 253.562 78.5884 249.955 85.536C246.385 92.4111 240.279 100.6 232.073 109.574C215.671 127.51 191.042 148.411 162.073 168.001C133.104 187.59 105.335 202.121 83.872 209.789C73.1332 213.625 64.0255 215.725 57.1572 215.908C50.2165 216.093 45.9058 214.319 44.2188 210.897C42.5318 207.475 43.3758 202.216 46.9829 195.268C50.5523 188.393 56.6585 180.204 64.8648 171.23C81.2664 153.294 105.895 132.393 134.864 112.803C163.833 93.2141 191.602 78.6833 213.066 71.0151C223.804 67.1785 232.912 65.0791 239.78 64.8961C246.721 64.7112 251.032 66.4846 252.719 69.9069Z" stroke="black" stroke-width="2"/>
<path opacity="0.827586" d="M257.56 79.6883C258.992 83.2855 257.751 88.445 253.646 94.9899C249.58 101.472 242.89 109.004 234.048 117.105C216.377 133.297 190.289 151.603 159.974 168.159C129.66 184.716 100.918 196.356 78.9686 201.803C67.9867 204.528 58.7601 205.689 51.9069 205.171C44.9874 204.647 40.8154 202.444 39.3832 198.847C37.951 195.249 39.1916 190.09 43.2969 183.545C47.3628 177.063 54.0531 169.531 62.8947 161.43C80.566 145.238 106.654 126.932 136.969 110.375C167.284 93.8189 196.025 82.1792 217.974 76.732C228.956 74.0066 238.183 72.8453 245.036 73.364C251.956 73.8876 256.128 76.091 257.56 79.6883Z" stroke="black" stroke-width="2"/>
<path opacity="0.862069" d="M261.566 89.9202C262.729 93.6638 261.102 98.682 256.53 104.777C251.999 110.817 244.775 117.636 235.366 124.803C216.559 139.127 189.21 154.699 157.781 168.097C126.351 181.496 96.8546 190.156 74.5865 193.342C63.4451 194.936 54.1694 195.15 47.3832 193.934C40.5361 192.708 36.5355 190.089 35.3721 186.345C34.2088 182.602 35.8361 177.583 40.408 171.489C44.9393 165.448 52.1628 158.63 61.5724 151.463C80.3789 137.139 107.727 121.567 139.157 108.168C170.587 94.7699 200.083 86.1093 222.351 82.9237C233.493 81.3299 242.768 81.1152 249.555 82.331C256.402 83.5577 260.402 86.1767 261.566 89.9202Z" stroke="black" stroke-width="2"/>
<path opacity="0.896552" d="M264.716 100.517C265.599 104.376 263.598 109.212 258.595 114.812C253.632 120.366 245.931 126.42 236.025 132.598C216.226 144.947 187.825 157.667 155.519 167.806C123.213 177.944 93.1867 183.561 70.7687 184.461C59.5523 184.911 50.2979 184.178 43.6297 182.275C36.9056 180.356 33.1081 177.339 32.2252 173.48C31.3423 169.62 33.3432 164.784 38.347 159.184C43.3092 153.63 51.011 147.576 60.917 141.398C80.7158 129.049 109.117 116.329 141.423 106.19C173.728 96.0517 203.755 90.4356 226.173 89.5354C237.389 89.0849 246.644 89.8178 253.312 91.7212C260.036 93.6406 263.833 96.6573 264.716 100.517Z" stroke="black" stroke-width="2"/>
<path opacity="0.931035" d="M266.982 111.388C267.576 115.331 265.218 119.947 259.819 125.012C254.464 130.037 246.342 135.281 236.015 140.424C215.374 150.704 186.136 160.476 153.2 167.278C120.264 174.08 89.9355 176.61 67.5377 175.218C56.3314 174.522 47.1681 172.847 40.6682 170.271C34.1165 167.674 30.5529 164.281 29.9592 160.338C29.3656 156.395 31.7236 151.779 37.1219 146.714C42.4774 141.69 50.599 136.445 60.9262 131.302C81.567 121.022 110.805 111.25 143.741 104.448C176.677 97.6462 207.006 95.1167 229.404 96.5082C240.61 97.2044 249.773 98.879 256.273 101.455C262.825 104.052 266.388 107.445 266.982 111.388Z" stroke="black" stroke-width="2"/>
<path opacity="0.965517" d="M268.347 122.446C268.645 126.44 265.95 130.798 260.197 135.291C254.489 139.749 246.009 144.144 235.339 148.213C214.012 156.347 184.159 163.097 150.843 166.511C117.527 169.925 87.1268 169.349 64.9188 165.676C53.8075 163.839 44.8046 161.235 38.522 158.006C32.1908 154.751 28.8901 151.007 28.5917 147.013C28.2934 143.02 30.9889 138.661 36.7414 134.168C42.4497 129.71 50.9299 125.315 61.6 121.246C82.9261 113.112 112.779 106.362 146.095 102.948C179.411 99.5343 209.812 100.11 232.02 103.783C243.131 105.62 252.134 108.224 258.417 111.453C264.748 114.708 268.048 118.452 268.347 122.446Z" stroke="black" stroke-width="2"/>
<path d="M268.805 133.594C268.805 137.605 265.794 141.672 259.73 145.56C253.712 149.419 244.937 152.931 234.005 155.896C212.155 161.821 181.914 165.498 148.471 165.498C115.028 165.498 84.7862 161.821 62.9364 155.896C52.0043 152.931 43.2296 149.419 37.2115 145.56C31.1473 141.672 28.1367 137.605 28.1367 133.594C28.1367 129.583 31.1473 125.516 37.2115 121.628C43.2296 117.77 52.0043 114.257 62.9364 111.293C84.7862 105.368 115.028 101.69 148.471 101.69C181.914 101.69 212.155 105.368 234.005 111.293C244.937 114.257 253.712 117.77 259.73 121.628C265.794 125.516 268.805 129.583 268.805 133.594Z" stroke="black" stroke-width="2"/>
</g>
</svg>
